<?xml version="1.0" encoding="utf-8"?>
<!-- Generator: Adobe Illustrator 20.0.0, SVG Export Plug-In . SVG Version: 6.00 Build 0)  -->
<svg version="1.1" id="Capa_1" xmlns="http://www.w3.org/2000/svg" xmlns:xlink="http://www.w3.org/1999/xlink" x="0px" y="0px"
	 viewBox="0 0 512 512" style="enable-background:new 0 0 512 512;" xml:space="preserve">
<style type="text/css">
	.st0{fill:#36368D;}
</style>
<path class="st0" d="M471.3,367.8C498,330.6,512,287.6,512,243.2c0-127-114.8-230.4-256-230.4S0,116.2,0,243.2
	s114.8,230.4,256,230.4c36.4,0,71.5-6.7,104.5-20c58.1,33.5,138.3,45.1,141.8,45.6c0.4,0.1,0.8,0.1,1.2,0.1c3.2,0,6.2-1.8,7.6-4.7
	c1.6-3.3,1-7.2-1.6-9.8C489.9,465,476.4,423.6,471.3,367.8z"/>
</svg>
