<?xml version="1.0" encoding="utf-8"?>
<!-- Generator: Adobe Illustrator 20.0.0, SVG Export Plug-In . SVG Version: 6.00 Build 0)  -->
<svg version="1.1" id="Capa_1" xmlns="http://www.w3.org/2000/svg" xmlns:xlink="http://www.w3.org/1999/xlink" x="0px" y="0px"
	 viewBox="0 0 512 512" style="enable-background:new 0 0 512 512;" xml:space="preserve">
<style type="text/css">
	.st0{fill:#2ED866;}
</style>
<g>
	<path class="st0" d="M205.7,119.9c12.8-5.4,18.2-20.7,12.4-33l-20.2-42.5c-5.8-12-19.8-17.3-32.2-12
		c-35.1,14.9-65.3,34.3-89.2,57.8c-29.3,27.7-49.2,59.5-59.9,94.6C5.8,220.3,0,268.6,0,330.1v126.8c0,13.6,11.2,24.8,24.8,24.8
		h162.3c13.6,0,24.8-11.2,24.8-24.8V294.6c0-13.6-11.2-24.8-24.8-24.8h-77.7c0.8-41.7,10.7-75.2,28.9-100.4
		C153.2,149.2,175.5,132.7,205.7,119.9z"/>
	<path class="st0" d="M497.3,119.9c12.8-5.4,18.2-20.7,12.4-33l-20.2-42.1c-5.8-12-19.8-17.3-32.2-12
		c-34.7,14.9-64.4,34.3-88.8,57.4c-29.3,28.1-49.6,59.9-60.3,95c-10.7,34.7-16.1,83-16.1,145V457c0,13.6,11.2,24.8,24.8,24.8h162.3
		c13.6,0,24.8-11.2,24.8-24.8V294.6c0-13.6-11.2-24.8-24.8-24.8h-78.1c0.8-41.7,10.7-75.2,28.9-100.4
		C444.8,149.2,467.1,132.7,497.3,119.9z"/>
</g>
</svg>
