<?xml version="1.0" encoding="utf-8"?>
<!-- Generator: Adobe Illustrator 20.0.0, SVG Export Plug-In . SVG Version: 6.00 Build 0)  -->
<svg version="1.1" id="Capa_1" xmlns="http://www.w3.org/2000/svg" xmlns:xlink="http://www.w3.org/1999/xlink" x="0px" y="0px"
	 viewBox="0 0 512 512" style="enable-background:new 0 0 512 512;" xml:space="preserve">
<style type="text/css">
	.st0{fill:#2ED866;}
</style>
<g>
	<path class="st0" d="M306.3,392.1c-12.8,5.4-18.2,20.7-12.4,33l20.2,42.5c5.8,12,19.8,17.3,32.2,12c35.1-14.9,65.3-34.3,89.2-57.8
		c29.3-27.7,49.2-59.5,59.9-94.6c10.7-35.5,16.5-83.8,16.5-145.4V55.1c0-13.6-11.2-24.8-24.8-24.8H324.9
		c-13.6,0-24.8,11.2-24.8,24.8v162.3c0,13.6,11.2,24.8,24.8,24.8h77.7c-0.8,41.7-10.7,75.2-28.9,100.4
		C358.8,362.8,336.5,379.3,306.3,392.1z"/>
	<path class="st0" d="M14.7,392.1c-12.8,5.4-18.2,20.7-12.4,33l20.2,42.1c5.8,12,19.8,17.3,32.2,12c34.7-14.9,64.4-34.3,88.8-57.4
		c29.3-28.1,49.6-59.9,60.3-95c10.7-34.7,16.1-83,16.1-145V55c0-13.6-11.2-24.8-24.8-24.8H32.9C19.3,30.3,8.1,41.4,8.1,55v162.3
		c0,13.6,11.2,24.8,24.8,24.8h78.1c-0.8,41.7-10.7,75.2-28.9,100.4C67.2,362.8,44.9,379.3,14.7,392.1z"/>
</g>
</svg>
